<mxfile host="app.diagrams.net" modified="2023-03-06T14:09:19.308Z" agent="5.0 (Windows NT 10.0; Win64; x64) AppleWebKit/537.36 (KHTML, like Gecko) Chrome/110.0.0.0 Safari/537.36 Edg/110.0.1587.63" etag="cgX-y6haA6L5ufbdGM8O" version="21.0.2" type="github">
  <diagram name="Page-1" id="agUg45UXipA3-LXiE4qr">
    <mxGraphModel dx="794" dy="470" grid="1" gridSize="10" guides="1" tooltips="1" connect="1" arrows="1" fold="1" page="1" pageScale="1" pageWidth="850" pageHeight="1100" math="0" shadow="0">
      <root>
        <mxCell id="0" />
        <mxCell id="1" parent="0" />
        <mxCell id="tPql8nwHRE3eNj_HZZmI-1" value="" style="shape=table;startSize=0;container=1;collapsible=0;childLayout=tableLayout;fontSize=16;" vertex="1" parent="1">
          <mxGeometry x="80" y="360" width="80" height="60" as="geometry" />
        </mxCell>
        <mxCell id="tPql8nwHRE3eNj_HZZmI-2" value="" style="shape=tableRow;horizontal=0;startSize=0;swimlaneHead=0;swimlaneBody=0;strokeColor=inherit;top=0;left=0;bottom=0;right=0;collapsible=0;dropTarget=0;fillColor=none;points=[[0,0.5],[1,0.5]];portConstraint=eastwest;fontSize=16;" vertex="1" parent="tPql8nwHRE3eNj_HZZmI-1">
          <mxGeometry width="80" height="20" as="geometry" />
        </mxCell>
        <mxCell id="tPql8nwHRE3eNj_HZZmI-3" value="" style="shape=partialRectangle;html=1;whiteSpace=wrap;connectable=0;strokeColor=inherit;overflow=hidden;fillColor=none;top=0;left=0;bottom=0;right=0;pointerEvents=1;fontSize=16;" vertex="1" parent="tPql8nwHRE3eNj_HZZmI-2">
          <mxGeometry width="27" height="20" as="geometry">
            <mxRectangle width="27" height="20" as="alternateBounds" />
          </mxGeometry>
        </mxCell>
        <mxCell id="tPql8nwHRE3eNj_HZZmI-4" value="" style="shape=partialRectangle;html=1;whiteSpace=wrap;connectable=0;strokeColor=inherit;overflow=hidden;fillColor=none;top=0;left=0;bottom=0;right=0;pointerEvents=1;fontSize=16;" vertex="1" parent="tPql8nwHRE3eNj_HZZmI-2">
          <mxGeometry x="27" width="26" height="20" as="geometry">
            <mxRectangle width="26" height="20" as="alternateBounds" />
          </mxGeometry>
        </mxCell>
        <mxCell id="tPql8nwHRE3eNj_HZZmI-5" value="" style="shape=partialRectangle;html=1;whiteSpace=wrap;connectable=0;strokeColor=inherit;overflow=hidden;fillColor=none;top=0;left=0;bottom=0;right=0;pointerEvents=1;fontSize=16;" vertex="1" parent="tPql8nwHRE3eNj_HZZmI-2">
          <mxGeometry x="53" width="27" height="20" as="geometry">
            <mxRectangle width="27" height="20" as="alternateBounds" />
          </mxGeometry>
        </mxCell>
        <mxCell id="tPql8nwHRE3eNj_HZZmI-6" value="" style="shape=tableRow;horizontal=0;startSize=0;swimlaneHead=0;swimlaneBody=0;strokeColor=inherit;top=0;left=0;bottom=0;right=0;collapsible=0;dropTarget=0;fillColor=none;points=[[0,0.5],[1,0.5]];portConstraint=eastwest;fontSize=16;" vertex="1" parent="tPql8nwHRE3eNj_HZZmI-1">
          <mxGeometry y="20" width="80" height="20" as="geometry" />
        </mxCell>
        <mxCell id="tPql8nwHRE3eNj_HZZmI-7" value="" style="shape=partialRectangle;html=1;whiteSpace=wrap;connectable=0;strokeColor=inherit;overflow=hidden;fillColor=none;top=0;left=0;bottom=0;right=0;pointerEvents=1;fontSize=16;" vertex="1" parent="tPql8nwHRE3eNj_HZZmI-6">
          <mxGeometry width="27" height="20" as="geometry">
            <mxRectangle width="27" height="20" as="alternateBounds" />
          </mxGeometry>
        </mxCell>
        <mxCell id="tPql8nwHRE3eNj_HZZmI-8" value="" style="shape=partialRectangle;html=1;whiteSpace=wrap;connectable=0;strokeColor=inherit;overflow=hidden;fillColor=none;top=0;left=0;bottom=0;right=0;pointerEvents=1;fontSize=16;" vertex="1" parent="tPql8nwHRE3eNj_HZZmI-6">
          <mxGeometry x="27" width="26" height="20" as="geometry">
            <mxRectangle width="26" height="20" as="alternateBounds" />
          </mxGeometry>
        </mxCell>
        <mxCell id="tPql8nwHRE3eNj_HZZmI-9" value="" style="shape=partialRectangle;html=1;whiteSpace=wrap;connectable=0;strokeColor=inherit;overflow=hidden;fillColor=none;top=0;left=0;bottom=0;right=0;pointerEvents=1;fontSize=16;" vertex="1" parent="tPql8nwHRE3eNj_HZZmI-6">
          <mxGeometry x="53" width="27" height="20" as="geometry">
            <mxRectangle width="27" height="20" as="alternateBounds" />
          </mxGeometry>
        </mxCell>
        <mxCell id="tPql8nwHRE3eNj_HZZmI-10" value="" style="shape=tableRow;horizontal=0;startSize=0;swimlaneHead=0;swimlaneBody=0;strokeColor=inherit;top=0;left=0;bottom=0;right=0;collapsible=0;dropTarget=0;fillColor=none;points=[[0,0.5],[1,0.5]];portConstraint=eastwest;fontSize=16;" vertex="1" parent="tPql8nwHRE3eNj_HZZmI-1">
          <mxGeometry y="40" width="80" height="20" as="geometry" />
        </mxCell>
        <mxCell id="tPql8nwHRE3eNj_HZZmI-11" value="" style="shape=partialRectangle;html=1;whiteSpace=wrap;connectable=0;strokeColor=inherit;overflow=hidden;fillColor=none;top=0;left=0;bottom=0;right=0;pointerEvents=1;fontSize=16;" vertex="1" parent="tPql8nwHRE3eNj_HZZmI-10">
          <mxGeometry width="27" height="20" as="geometry">
            <mxRectangle width="27" height="20" as="alternateBounds" />
          </mxGeometry>
        </mxCell>
        <mxCell id="tPql8nwHRE3eNj_HZZmI-12" value="" style="shape=partialRectangle;html=1;whiteSpace=wrap;connectable=0;strokeColor=inherit;overflow=hidden;fillColor=none;top=0;left=0;bottom=0;right=0;pointerEvents=1;fontSize=16;" vertex="1" parent="tPql8nwHRE3eNj_HZZmI-10">
          <mxGeometry x="27" width="26" height="20" as="geometry">
            <mxRectangle width="26" height="20" as="alternateBounds" />
          </mxGeometry>
        </mxCell>
        <mxCell id="tPql8nwHRE3eNj_HZZmI-13" value="" style="shape=partialRectangle;html=1;whiteSpace=wrap;connectable=0;strokeColor=inherit;overflow=hidden;fillColor=none;top=0;left=0;bottom=0;right=0;pointerEvents=1;fontSize=16;" vertex="1" parent="tPql8nwHRE3eNj_HZZmI-10">
          <mxGeometry x="53" width="27" height="20" as="geometry">
            <mxRectangle width="27" height="20" as="alternateBounds" />
          </mxGeometry>
        </mxCell>
        <mxCell id="tPql8nwHRE3eNj_HZZmI-41" value="" style="shape=table;startSize=0;container=1;collapsible=0;childLayout=tableLayout;fontSize=16;direction=north;" vertex="1" parent="1">
          <mxGeometry x="320" y="220" width="20" height="100" as="geometry" />
        </mxCell>
        <mxCell id="tPql8nwHRE3eNj_HZZmI-42" value="" style="shape=tableRow;horizontal=0;startSize=0;swimlaneHead=0;swimlaneBody=0;strokeColor=inherit;top=0;left=0;bottom=0;right=0;collapsible=0;dropTarget=0;fillColor=none;points=[[0,0.5],[1,0.5]];portConstraint=eastwest;fontSize=16;" vertex="1" parent="tPql8nwHRE3eNj_HZZmI-41">
          <mxGeometry width="20" height="33" as="geometry" />
        </mxCell>
        <mxCell id="tPql8nwHRE3eNj_HZZmI-58" style="shape=partialRectangle;html=1;whiteSpace=wrap;connectable=0;strokeColor=#d79b00;overflow=hidden;fillColor=#ffe6cc;top=0;left=0;bottom=0;right=0;pointerEvents=1;fontSize=16;" vertex="1" parent="tPql8nwHRE3eNj_HZZmI-42">
          <mxGeometry width="20" height="33" as="geometry">
            <mxRectangle width="20" height="33" as="alternateBounds" />
          </mxGeometry>
        </mxCell>
        <mxCell id="tPql8nwHRE3eNj_HZZmI-46" value="" style="shape=tableRow;horizontal=0;startSize=0;swimlaneHead=0;swimlaneBody=0;strokeColor=inherit;top=0;left=0;bottom=0;right=0;collapsible=0;dropTarget=0;fillColor=none;points=[[0,0.5],[1,0.5]];portConstraint=eastwest;fontSize=16;" vertex="1" parent="tPql8nwHRE3eNj_HZZmI-41">
          <mxGeometry y="33" width="20" height="34" as="geometry" />
        </mxCell>
        <mxCell id="tPql8nwHRE3eNj_HZZmI-59" style="shape=partialRectangle;html=1;whiteSpace=wrap;connectable=0;strokeColor=#82b366;overflow=hidden;fillColor=#d5e8d4;top=0;left=0;bottom=0;right=0;pointerEvents=1;fontSize=16;" vertex="1" parent="tPql8nwHRE3eNj_HZZmI-46">
          <mxGeometry width="20" height="34" as="geometry">
            <mxRectangle width="20" height="34" as="alternateBounds" />
          </mxGeometry>
        </mxCell>
        <mxCell id="tPql8nwHRE3eNj_HZZmI-54" style="shape=tableRow;horizontal=0;startSize=0;swimlaneHead=0;swimlaneBody=0;strokeColor=inherit;top=0;left=0;bottom=0;right=0;collapsible=0;dropTarget=0;fillColor=none;points=[[0,0.5],[1,0.5]];portConstraint=eastwest;fontSize=16;" vertex="1" parent="tPql8nwHRE3eNj_HZZmI-41">
          <mxGeometry y="67" width="20" height="33" as="geometry" />
        </mxCell>
        <mxCell id="tPql8nwHRE3eNj_HZZmI-60" style="shape=partialRectangle;html=1;whiteSpace=wrap;connectable=0;strokeColor=inherit;overflow=hidden;fillColor=none;top=0;left=0;bottom=0;right=0;pointerEvents=1;fontSize=16;" vertex="1" parent="tPql8nwHRE3eNj_HZZmI-54">
          <mxGeometry width="20" height="33" as="geometry">
            <mxRectangle width="20" height="33" as="alternateBounds" />
          </mxGeometry>
        </mxCell>
        <mxCell id="tPql8nwHRE3eNj_HZZmI-64" value="" style="shape=table;startSize=0;container=1;collapsible=0;childLayout=tableLayout;fontSize=16;direction=north;" vertex="1" parent="1">
          <mxGeometry x="320" y="480" width="20" height="90" as="geometry" />
        </mxCell>
        <mxCell id="tPql8nwHRE3eNj_HZZmI-65" value="" style="shape=tableRow;horizontal=0;startSize=0;swimlaneHead=0;swimlaneBody=0;strokeColor=inherit;top=0;left=0;bottom=0;right=0;collapsible=0;dropTarget=0;fillColor=none;points=[[0,0.5],[1,0.5]];portConstraint=eastwest;fontSize=16;" vertex="1" parent="tPql8nwHRE3eNj_HZZmI-64">
          <mxGeometry width="20" height="30" as="geometry" />
        </mxCell>
        <mxCell id="tPql8nwHRE3eNj_HZZmI-66" style="shape=partialRectangle;html=1;whiteSpace=wrap;connectable=0;strokeColor=#d79b00;overflow=hidden;fillColor=#ffe6cc;top=0;left=0;bottom=0;right=0;pointerEvents=1;fontSize=16;" vertex="1" parent="tPql8nwHRE3eNj_HZZmI-65">
          <mxGeometry width="20" height="30" as="geometry">
            <mxRectangle width="20" height="30" as="alternateBounds" />
          </mxGeometry>
        </mxCell>
        <mxCell id="tPql8nwHRE3eNj_HZZmI-67" value="" style="shape=tableRow;horizontal=0;startSize=0;swimlaneHead=0;swimlaneBody=0;strokeColor=inherit;top=0;left=0;bottom=0;right=0;collapsible=0;dropTarget=0;fillColor=none;points=[[0,0.5],[1,0.5]];portConstraint=eastwest;fontSize=16;" vertex="1" parent="tPql8nwHRE3eNj_HZZmI-64">
          <mxGeometry y="30" width="20" height="30" as="geometry" />
        </mxCell>
        <mxCell id="tPql8nwHRE3eNj_HZZmI-68" style="shape=partialRectangle;html=1;whiteSpace=wrap;connectable=0;strokeColor=#82b366;overflow=hidden;fillColor=#d5e8d4;top=0;left=0;bottom=0;right=0;pointerEvents=1;fontSize=16;" vertex="1" parent="tPql8nwHRE3eNj_HZZmI-67">
          <mxGeometry width="20" height="30" as="geometry">
            <mxRectangle width="20" height="30" as="alternateBounds" />
          </mxGeometry>
        </mxCell>
        <mxCell id="tPql8nwHRE3eNj_HZZmI-69" style="shape=tableRow;horizontal=0;startSize=0;swimlaneHead=0;swimlaneBody=0;strokeColor=inherit;top=0;left=0;bottom=0;right=0;collapsible=0;dropTarget=0;fillColor=none;points=[[0,0.5],[1,0.5]];portConstraint=eastwest;fontSize=16;" vertex="1" parent="tPql8nwHRE3eNj_HZZmI-64">
          <mxGeometry y="60" width="20" height="30" as="geometry" />
        </mxCell>
        <mxCell id="tPql8nwHRE3eNj_HZZmI-70" style="shape=partialRectangle;html=1;whiteSpace=wrap;connectable=0;strokeColor=inherit;overflow=hidden;fillColor=none;top=0;left=0;bottom=0;right=0;pointerEvents=1;fontSize=16;" vertex="1" parent="tPql8nwHRE3eNj_HZZmI-69">
          <mxGeometry width="20" height="30" as="geometry">
            <mxRectangle width="20" height="30" as="alternateBounds" />
          </mxGeometry>
        </mxCell>
        <mxCell id="tPql8nwHRE3eNj_HZZmI-71" value="" style="shape=table;startSize=0;container=1;collapsible=0;childLayout=tableLayout;fontSize=16;direction=north;" vertex="1" parent="1">
          <mxGeometry x="320" y="340" width="20" height="90" as="geometry" />
        </mxCell>
        <mxCell id="tPql8nwHRE3eNj_HZZmI-72" value="" style="shape=tableRow;horizontal=0;startSize=0;swimlaneHead=0;swimlaneBody=0;strokeColor=inherit;top=0;left=0;bottom=0;right=0;collapsible=0;dropTarget=0;fillColor=none;points=[[0,0.5],[1,0.5]];portConstraint=eastwest;fontSize=16;" vertex="1" parent="tPql8nwHRE3eNj_HZZmI-71">
          <mxGeometry width="20" height="30" as="geometry" />
        </mxCell>
        <mxCell id="tPql8nwHRE3eNj_HZZmI-73" style="shape=partialRectangle;html=1;whiteSpace=wrap;connectable=0;strokeColor=#d79b00;overflow=hidden;fillColor=#ffe6cc;top=0;left=0;bottom=0;right=0;pointerEvents=1;fontSize=16;" vertex="1" parent="tPql8nwHRE3eNj_HZZmI-72">
          <mxGeometry width="20" height="30" as="geometry">
            <mxRectangle width="20" height="30" as="alternateBounds" />
          </mxGeometry>
        </mxCell>
        <mxCell id="tPql8nwHRE3eNj_HZZmI-74" value="" style="shape=tableRow;horizontal=0;startSize=0;swimlaneHead=0;swimlaneBody=0;strokeColor=inherit;top=0;left=0;bottom=0;right=0;collapsible=0;dropTarget=0;fillColor=none;points=[[0,0.5],[1,0.5]];portConstraint=eastwest;fontSize=16;" vertex="1" parent="tPql8nwHRE3eNj_HZZmI-71">
          <mxGeometry y="30" width="20" height="30" as="geometry" />
        </mxCell>
        <mxCell id="tPql8nwHRE3eNj_HZZmI-75" style="shape=partialRectangle;html=1;whiteSpace=wrap;connectable=0;strokeColor=#82b366;overflow=hidden;fillColor=#d5e8d4;top=0;left=0;bottom=0;right=0;pointerEvents=1;fontSize=16;" vertex="1" parent="tPql8nwHRE3eNj_HZZmI-74">
          <mxGeometry width="20" height="30" as="geometry">
            <mxRectangle width="20" height="30" as="alternateBounds" />
          </mxGeometry>
        </mxCell>
        <mxCell id="tPql8nwHRE3eNj_HZZmI-76" style="shape=tableRow;horizontal=0;startSize=0;swimlaneHead=0;swimlaneBody=0;strokeColor=inherit;top=0;left=0;bottom=0;right=0;collapsible=0;dropTarget=0;fillColor=none;points=[[0,0.5],[1,0.5]];portConstraint=eastwest;fontSize=16;" vertex="1" parent="tPql8nwHRE3eNj_HZZmI-71">
          <mxGeometry y="60" width="20" height="30" as="geometry" />
        </mxCell>
        <mxCell id="tPql8nwHRE3eNj_HZZmI-77" style="shape=partialRectangle;html=1;whiteSpace=wrap;connectable=0;strokeColor=inherit;overflow=hidden;fillColor=none;top=0;left=0;bottom=0;right=0;pointerEvents=1;fontSize=16;" vertex="1" parent="tPql8nwHRE3eNj_HZZmI-76">
          <mxGeometry width="20" height="30" as="geometry">
            <mxRectangle width="20" height="30" as="alternateBounds" />
          </mxGeometry>
        </mxCell>
        <mxCell id="tPql8nwHRE3eNj_HZZmI-78" value="" style="shape=table;startSize=0;container=1;collapsible=0;childLayout=tableLayout;fontSize=16;direction=north;" vertex="1" parent="1">
          <mxGeometry x="440" y="220" width="20" height="100" as="geometry" />
        </mxCell>
        <mxCell id="tPql8nwHRE3eNj_HZZmI-79" value="" style="shape=tableRow;horizontal=0;startSize=0;swimlaneHead=0;swimlaneBody=0;strokeColor=inherit;top=0;left=0;bottom=0;right=0;collapsible=0;dropTarget=0;fillColor=none;points=[[0,0.5],[1,0.5]];portConstraint=eastwest;fontSize=16;" vertex="1" parent="tPql8nwHRE3eNj_HZZmI-78">
          <mxGeometry width="20" height="33" as="geometry" />
        </mxCell>
        <mxCell id="tPql8nwHRE3eNj_HZZmI-80" style="shape=partialRectangle;html=1;whiteSpace=wrap;connectable=0;strokeColor=#d79b00;overflow=hidden;fillColor=#ffe6cc;top=0;left=0;bottom=0;right=0;pointerEvents=1;fontSize=16;" vertex="1" parent="tPql8nwHRE3eNj_HZZmI-79">
          <mxGeometry width="20" height="33" as="geometry">
            <mxRectangle width="20" height="33" as="alternateBounds" />
          </mxGeometry>
        </mxCell>
        <mxCell id="tPql8nwHRE3eNj_HZZmI-81" value="" style="shape=tableRow;horizontal=0;startSize=0;swimlaneHead=0;swimlaneBody=0;strokeColor=inherit;top=0;left=0;bottom=0;right=0;collapsible=0;dropTarget=0;fillColor=none;points=[[0,0.5],[1,0.5]];portConstraint=eastwest;fontSize=16;" vertex="1" parent="tPql8nwHRE3eNj_HZZmI-78">
          <mxGeometry y="33" width="20" height="34" as="geometry" />
        </mxCell>
        <mxCell id="tPql8nwHRE3eNj_HZZmI-82" style="shape=partialRectangle;html=1;whiteSpace=wrap;connectable=0;strokeColor=#d79b00;overflow=hidden;fillColor=#ffe6cc;top=0;left=0;bottom=0;right=0;pointerEvents=1;fontSize=16;" vertex="1" parent="tPql8nwHRE3eNj_HZZmI-81">
          <mxGeometry width="20" height="34" as="geometry">
            <mxRectangle width="20" height="34" as="alternateBounds" />
          </mxGeometry>
        </mxCell>
        <mxCell id="tPql8nwHRE3eNj_HZZmI-83" style="shape=tableRow;horizontal=0;startSize=0;swimlaneHead=0;swimlaneBody=0;strokeColor=inherit;top=0;left=0;bottom=0;right=0;collapsible=0;dropTarget=0;fillColor=none;points=[[0,0.5],[1,0.5]];portConstraint=eastwest;fontSize=16;" vertex="1" parent="tPql8nwHRE3eNj_HZZmI-78">
          <mxGeometry y="67" width="20" height="33" as="geometry" />
        </mxCell>
        <mxCell id="tPql8nwHRE3eNj_HZZmI-84" style="shape=partialRectangle;html=1;whiteSpace=wrap;connectable=0;strokeColor=#d79b00;overflow=hidden;fillColor=#ffe6cc;top=0;left=0;bottom=0;right=0;pointerEvents=1;fontSize=16;" vertex="1" parent="tPql8nwHRE3eNj_HZZmI-83">
          <mxGeometry width="20" height="33" as="geometry">
            <mxRectangle width="20" height="33" as="alternateBounds" />
          </mxGeometry>
        </mxCell>
        <mxCell id="tPql8nwHRE3eNj_HZZmI-85" value="" style="shape=table;startSize=0;container=1;collapsible=0;childLayout=tableLayout;fontSize=16;direction=north;" vertex="1" parent="1">
          <mxGeometry x="440" y="340" width="20" height="100" as="geometry" />
        </mxCell>
        <mxCell id="tPql8nwHRE3eNj_HZZmI-86" value="" style="shape=tableRow;horizontal=0;startSize=0;swimlaneHead=0;swimlaneBody=0;strokeColor=inherit;top=0;left=0;bottom=0;right=0;collapsible=0;dropTarget=0;fillColor=none;points=[[0,0.5],[1,0.5]];portConstraint=eastwest;fontSize=16;" vertex="1" parent="tPql8nwHRE3eNj_HZZmI-85">
          <mxGeometry width="20" height="33" as="geometry" />
        </mxCell>
        <mxCell id="tPql8nwHRE3eNj_HZZmI-87" style="shape=partialRectangle;html=1;whiteSpace=wrap;connectable=0;strokeColor=#82b366;overflow=hidden;fillColor=#d5e8d4;top=0;left=0;bottom=0;right=0;pointerEvents=1;fontSize=16;" vertex="1" parent="tPql8nwHRE3eNj_HZZmI-86">
          <mxGeometry width="20" height="33" as="geometry">
            <mxRectangle width="20" height="33" as="alternateBounds" />
          </mxGeometry>
        </mxCell>
        <mxCell id="tPql8nwHRE3eNj_HZZmI-88" value="" style="shape=tableRow;horizontal=0;startSize=0;swimlaneHead=0;swimlaneBody=0;strokeColor=inherit;top=0;left=0;bottom=0;right=0;collapsible=0;dropTarget=0;fillColor=none;points=[[0,0.5],[1,0.5]];portConstraint=eastwest;fontSize=16;" vertex="1" parent="tPql8nwHRE3eNj_HZZmI-85">
          <mxGeometry y="33" width="20" height="34" as="geometry" />
        </mxCell>
        <mxCell id="tPql8nwHRE3eNj_HZZmI-89" style="shape=partialRectangle;html=1;whiteSpace=wrap;connectable=0;strokeColor=#82b366;overflow=hidden;fillColor=#d5e8d4;top=0;left=0;bottom=0;right=0;pointerEvents=1;fontSize=16;" vertex="1" parent="tPql8nwHRE3eNj_HZZmI-88">
          <mxGeometry width="20" height="34" as="geometry">
            <mxRectangle width="20" height="34" as="alternateBounds" />
          </mxGeometry>
        </mxCell>
        <mxCell id="tPql8nwHRE3eNj_HZZmI-90" style="shape=tableRow;horizontal=0;startSize=0;swimlaneHead=0;swimlaneBody=0;strokeColor=inherit;top=0;left=0;bottom=0;right=0;collapsible=0;dropTarget=0;fillColor=none;points=[[0,0.5],[1,0.5]];portConstraint=eastwest;fontSize=16;" vertex="1" parent="tPql8nwHRE3eNj_HZZmI-85">
          <mxGeometry y="67" width="20" height="33" as="geometry" />
        </mxCell>
        <mxCell id="tPql8nwHRE3eNj_HZZmI-91" style="shape=partialRectangle;html=1;whiteSpace=wrap;connectable=0;strokeColor=#82b366;overflow=hidden;fillColor=#d5e8d4;top=0;left=0;bottom=0;right=0;pointerEvents=1;fontSize=16;" vertex="1" parent="tPql8nwHRE3eNj_HZZmI-90">
          <mxGeometry width="20" height="33" as="geometry">
            <mxRectangle width="20" height="33" as="alternateBounds" />
          </mxGeometry>
        </mxCell>
        <mxCell id="tPql8nwHRE3eNj_HZZmI-99" value="" style="shape=table;startSize=0;container=1;collapsible=0;childLayout=tableLayout;fontSize=16;" vertex="1" parent="1">
          <mxGeometry x="440" y="480" width="20" height="100" as="geometry" />
        </mxCell>
        <mxCell id="tPql8nwHRE3eNj_HZZmI-100" value="" style="shape=tableRow;horizontal=0;startSize=0;swimlaneHead=0;swimlaneBody=0;strokeColor=inherit;top=0;left=0;bottom=0;right=0;collapsible=0;dropTarget=0;fillColor=none;points=[[0,0.5],[1,0.5]];portConstraint=eastwest;fontSize=16;" vertex="1" parent="tPql8nwHRE3eNj_HZZmI-99">
          <mxGeometry width="20" height="33" as="geometry" />
        </mxCell>
        <mxCell id="tPql8nwHRE3eNj_HZZmI-101" value="" style="shape=partialRectangle;html=1;whiteSpace=wrap;connectable=0;strokeColor=inherit;overflow=hidden;fillColor=none;top=0;left=0;bottom=0;right=0;pointerEvents=1;fontSize=16;" vertex="1" parent="tPql8nwHRE3eNj_HZZmI-100">
          <mxGeometry width="20" height="33" as="geometry">
            <mxRectangle width="20" height="33" as="alternateBounds" />
          </mxGeometry>
        </mxCell>
        <mxCell id="tPql8nwHRE3eNj_HZZmI-104" value="" style="shape=tableRow;horizontal=0;startSize=0;swimlaneHead=0;swimlaneBody=0;strokeColor=inherit;top=0;left=0;bottom=0;right=0;collapsible=0;dropTarget=0;fillColor=none;points=[[0,0.5],[1,0.5]];portConstraint=eastwest;fontSize=16;" vertex="1" parent="tPql8nwHRE3eNj_HZZmI-99">
          <mxGeometry y="33" width="20" height="34" as="geometry" />
        </mxCell>
        <mxCell id="tPql8nwHRE3eNj_HZZmI-105" value="" style="shape=partialRectangle;html=1;whiteSpace=wrap;connectable=0;strokeColor=inherit;overflow=hidden;fillColor=none;top=0;left=0;bottom=0;right=0;pointerEvents=1;fontSize=16;" vertex="1" parent="tPql8nwHRE3eNj_HZZmI-104">
          <mxGeometry width="20" height="34" as="geometry">
            <mxRectangle width="20" height="34" as="alternateBounds" />
          </mxGeometry>
        </mxCell>
        <mxCell id="tPql8nwHRE3eNj_HZZmI-108" value="" style="shape=tableRow;horizontal=0;startSize=0;swimlaneHead=0;swimlaneBody=0;strokeColor=inherit;top=0;left=0;bottom=0;right=0;collapsible=0;dropTarget=0;fillColor=none;points=[[0,0.5],[1,0.5]];portConstraint=eastwest;fontSize=16;" vertex="1" parent="tPql8nwHRE3eNj_HZZmI-99">
          <mxGeometry y="67" width="20" height="33" as="geometry" />
        </mxCell>
        <mxCell id="tPql8nwHRE3eNj_HZZmI-109" value="" style="shape=partialRectangle;html=1;whiteSpace=wrap;connectable=0;strokeColor=inherit;overflow=hidden;fillColor=none;top=0;left=0;bottom=0;right=0;pointerEvents=1;fontSize=16;" vertex="1" parent="tPql8nwHRE3eNj_HZZmI-108">
          <mxGeometry width="20" height="33" as="geometry">
            <mxRectangle width="20" height="33" as="alternateBounds" />
          </mxGeometry>
        </mxCell>
        <mxCell id="tPql8nwHRE3eNj_HZZmI-112" value="" style="shape=table;startSize=0;container=1;collapsible=0;childLayout=tableLayout;fontSize=16;" vertex="1" parent="1">
          <mxGeometry x="550" y="260" width="20" height="230" as="geometry" />
        </mxCell>
        <mxCell id="tPql8nwHRE3eNj_HZZmI-113" value="" style="shape=tableRow;horizontal=0;startSize=0;swimlaneHead=0;swimlaneBody=0;strokeColor=inherit;top=0;left=0;bottom=0;right=0;collapsible=0;dropTarget=0;fillColor=none;points=[[0,0.5],[1,0.5]];portConstraint=eastwest;fontSize=16;" vertex="1" parent="tPql8nwHRE3eNj_HZZmI-112">
          <mxGeometry width="20" height="38" as="geometry" />
        </mxCell>
        <mxCell id="tPql8nwHRE3eNj_HZZmI-114" value="" style="shape=partialRectangle;html=1;whiteSpace=wrap;connectable=0;strokeColor=#d79b00;overflow=hidden;fillColor=#ffe6cc;top=0;left=0;bottom=0;right=0;pointerEvents=1;fontSize=16;" vertex="1" parent="tPql8nwHRE3eNj_HZZmI-113">
          <mxGeometry width="20" height="38" as="geometry">
            <mxRectangle width="20" height="38" as="alternateBounds" />
          </mxGeometry>
        </mxCell>
        <mxCell id="tPql8nwHRE3eNj_HZZmI-117" value="" style="shape=tableRow;horizontal=0;startSize=0;swimlaneHead=0;swimlaneBody=0;strokeColor=inherit;top=0;left=0;bottom=0;right=0;collapsible=0;dropTarget=0;fillColor=none;points=[[0,0.5],[1,0.5]];portConstraint=eastwest;fontSize=16;" vertex="1" parent="tPql8nwHRE3eNj_HZZmI-112">
          <mxGeometry y="38" width="20" height="39" as="geometry" />
        </mxCell>
        <mxCell id="tPql8nwHRE3eNj_HZZmI-118" value="" style="shape=partialRectangle;html=1;whiteSpace=wrap;connectable=0;strokeColor=#d79b00;overflow=hidden;fillColor=#ffe6cc;top=0;left=0;bottom=0;right=0;pointerEvents=1;fontSize=16;" vertex="1" parent="tPql8nwHRE3eNj_HZZmI-117">
          <mxGeometry width="20" height="39" as="geometry">
            <mxRectangle width="20" height="39" as="alternateBounds" />
          </mxGeometry>
        </mxCell>
        <mxCell id="tPql8nwHRE3eNj_HZZmI-121" value="" style="shape=tableRow;horizontal=0;startSize=0;swimlaneHead=0;swimlaneBody=0;strokeColor=inherit;top=0;left=0;bottom=0;right=0;collapsible=0;dropTarget=0;fillColor=none;points=[[0,0.5],[1,0.5]];portConstraint=eastwest;fontSize=16;" vertex="1" parent="tPql8nwHRE3eNj_HZZmI-112">
          <mxGeometry y="77" width="20" height="38" as="geometry" />
        </mxCell>
        <mxCell id="tPql8nwHRE3eNj_HZZmI-122" value="" style="shape=partialRectangle;html=1;whiteSpace=wrap;connectable=0;strokeColor=#82b366;overflow=hidden;fillColor=#d5e8d4;top=0;left=0;bottom=0;right=0;pointerEvents=1;fontSize=16;" vertex="1" parent="tPql8nwHRE3eNj_HZZmI-121">
          <mxGeometry width="20" height="38" as="geometry">
            <mxRectangle width="20" height="38" as="alternateBounds" />
          </mxGeometry>
        </mxCell>
        <mxCell id="tPql8nwHRE3eNj_HZZmI-125" style="shape=tableRow;horizontal=0;startSize=0;swimlaneHead=0;swimlaneBody=0;strokeColor=inherit;top=0;left=0;bottom=0;right=0;collapsible=0;dropTarget=0;fillColor=none;points=[[0,0.5],[1,0.5]];portConstraint=eastwest;fontSize=16;" vertex="1" parent="tPql8nwHRE3eNj_HZZmI-112">
          <mxGeometry y="115" width="20" height="38" as="geometry" />
        </mxCell>
        <mxCell id="tPql8nwHRE3eNj_HZZmI-126" style="shape=partialRectangle;html=1;whiteSpace=wrap;connectable=0;strokeColor=#82b366;overflow=hidden;fillColor=#d5e8d4;top=0;left=0;bottom=0;right=0;pointerEvents=1;fontSize=16;" vertex="1" parent="tPql8nwHRE3eNj_HZZmI-125">
          <mxGeometry width="20" height="38" as="geometry">
            <mxRectangle width="20" height="38" as="alternateBounds" />
          </mxGeometry>
        </mxCell>
        <mxCell id="tPql8nwHRE3eNj_HZZmI-127" style="shape=tableRow;horizontal=0;startSize=0;swimlaneHead=0;swimlaneBody=0;strokeColor=inherit;top=0;left=0;bottom=0;right=0;collapsible=0;dropTarget=0;fillColor=none;points=[[0,0.5],[1,0.5]];portConstraint=eastwest;fontSize=16;" vertex="1" parent="tPql8nwHRE3eNj_HZZmI-112">
          <mxGeometry y="153" width="20" height="39" as="geometry" />
        </mxCell>
        <mxCell id="tPql8nwHRE3eNj_HZZmI-128" style="shape=partialRectangle;html=1;whiteSpace=wrap;connectable=0;strokeColor=inherit;overflow=hidden;fillColor=none;top=0;left=0;bottom=0;right=0;pointerEvents=1;fontSize=16;" vertex="1" parent="tPql8nwHRE3eNj_HZZmI-127">
          <mxGeometry width="20" height="39" as="geometry">
            <mxRectangle width="20" height="39" as="alternateBounds" />
          </mxGeometry>
        </mxCell>
        <mxCell id="tPql8nwHRE3eNj_HZZmI-129" style="shape=tableRow;horizontal=0;startSize=0;swimlaneHead=0;swimlaneBody=0;strokeColor=inherit;top=0;left=0;bottom=0;right=0;collapsible=0;dropTarget=0;fillColor=none;points=[[0,0.5],[1,0.5]];portConstraint=eastwest;fontSize=16;" vertex="1" parent="tPql8nwHRE3eNj_HZZmI-112">
          <mxGeometry y="192" width="20" height="38" as="geometry" />
        </mxCell>
        <mxCell id="tPql8nwHRE3eNj_HZZmI-130" style="shape=partialRectangle;html=1;whiteSpace=wrap;connectable=0;strokeColor=inherit;overflow=hidden;fillColor=none;top=0;left=0;bottom=0;right=0;pointerEvents=1;fontSize=16;" vertex="1" parent="tPql8nwHRE3eNj_HZZmI-129">
          <mxGeometry width="20" height="38" as="geometry">
            <mxRectangle width="20" height="38" as="alternateBounds" />
          </mxGeometry>
        </mxCell>
        <mxCell id="tPql8nwHRE3eNj_HZZmI-132" value="" style="endArrow=none;html=1;rounded=0;entryX=0.575;entryY=0.022;entryDx=0;entryDy=0;entryPerimeter=0;exitX=1.006;exitY=0.217;exitDx=0;exitDy=0;exitPerimeter=0;" edge="1" parent="1" source="tPql8nwHRE3eNj_HZZmI-6" target="tPql8nwHRE3eNj_HZZmI-41">
          <mxGeometry width="50" height="50" relative="1" as="geometry">
            <mxPoint x="200" y="410" as="sourcePoint" />
            <mxPoint x="250" y="360" as="targetPoint" />
          </mxGeometry>
        </mxCell>
        <mxCell id="tPql8nwHRE3eNj_HZZmI-133" value="" style="endArrow=none;html=1;rounded=0;exitX=0.5;exitY=0;exitDx=0;exitDy=0;entryX=1.006;entryY=0.236;entryDx=0;entryDy=0;entryPerimeter=0;" edge="1" parent="1" source="tPql8nwHRE3eNj_HZZmI-71" target="tPql8nwHRE3eNj_HZZmI-6">
          <mxGeometry width="50" height="50" relative="1" as="geometry">
            <mxPoint x="330" y="360" as="sourcePoint" />
            <mxPoint x="200" y="400" as="targetPoint" />
          </mxGeometry>
        </mxCell>
        <mxCell id="tPql8nwHRE3eNj_HZZmI-134" value="" style="endArrow=none;html=1;rounded=0;exitX=1.022;exitY=0.245;exitDx=0;exitDy=0;exitPerimeter=0;entryX=0.5;entryY=0;entryDx=0;entryDy=0;" edge="1" parent="1" source="tPql8nwHRE3eNj_HZZmI-6" target="tPql8nwHRE3eNj_HZZmI-64">
          <mxGeometry width="50" height="50" relative="1" as="geometry">
            <mxPoint x="230" y="540" as="sourcePoint" />
            <mxPoint x="280" y="490" as="targetPoint" />
          </mxGeometry>
        </mxCell>
        <mxCell id="tPql8nwHRE3eNj_HZZmI-135" value="" style="endArrow=none;html=1;rounded=0;entryX=0.919;entryY=0.1;entryDx=0;entryDy=0;entryPerimeter=0;exitX=1;exitY=0.5;exitDx=0;exitDy=0;dashed=1;" edge="1" parent="1" source="tPql8nwHRE3eNj_HZZmI-42" target="tPql8nwHRE3eNj_HZZmI-78">
          <mxGeometry width="50" height="50" relative="1" as="geometry">
            <mxPoint x="340" y="220" as="sourcePoint" />
            <mxPoint x="390" y="170" as="targetPoint" />
          </mxGeometry>
        </mxCell>
        <mxCell id="tPql8nwHRE3eNj_HZZmI-136" value="" style="endArrow=none;html=1;rounded=0;entryX=0;entryY=0.5;entryDx=0;entryDy=0;dashed=1;" edge="1" parent="1" target="tPql8nwHRE3eNj_HZZmI-83">
          <mxGeometry width="50" height="50" relative="1" as="geometry">
            <mxPoint x="340" y="480" as="sourcePoint" />
            <mxPoint x="390" y="440" as="targetPoint" />
          </mxGeometry>
        </mxCell>
        <mxCell id="tPql8nwHRE3eNj_HZZmI-137" value="" style="endArrow=none;html=1;rounded=0;entryX=0.5;entryY=0;entryDx=0;entryDy=0;exitX=1;exitY=0.5;exitDx=0;exitDy=0;dashed=1;" edge="1" parent="1" source="tPql8nwHRE3eNj_HZZmI-72" target="tPql8nwHRE3eNj_HZZmI-78">
          <mxGeometry width="50" height="50" relative="1" as="geometry">
            <mxPoint x="340" y="350" as="sourcePoint" />
            <mxPoint x="390" y="300" as="targetPoint" />
          </mxGeometry>
        </mxCell>
        <mxCell id="tPql8nwHRE3eNj_HZZmI-138" value="" style="endArrow=none;html=1;rounded=0;entryX=0.25;entryY=0;entryDx=0;entryDy=0;exitX=1.034;exitY=-0.267;exitDx=0;exitDy=0;exitPerimeter=0;dashed=1;" edge="1" parent="1" source="tPql8nwHRE3eNj_HZZmI-69" target="tPql8nwHRE3eNj_HZZmI-85">
          <mxGeometry width="50" height="50" relative="1" as="geometry">
            <mxPoint x="340" y="530" as="sourcePoint" />
            <mxPoint x="390" y="480" as="targetPoint" />
          </mxGeometry>
        </mxCell>
        <mxCell id="tPql8nwHRE3eNj_HZZmI-139" value="" style="endArrow=none;html=1;rounded=0;entryX=0.001;entryY=0.747;entryDx=0;entryDy=0;entryPerimeter=0;exitX=1;exitY=0.5;exitDx=0;exitDy=0;dashed=1;" edge="1" parent="1" source="tPql8nwHRE3eNj_HZZmI-46" target="tPql8nwHRE3eNj_HZZmI-86">
          <mxGeometry width="50" height="50" relative="1" as="geometry">
            <mxPoint x="340" y="270" as="sourcePoint" />
            <mxPoint x="390" y="220" as="targetPoint" />
          </mxGeometry>
        </mxCell>
        <mxCell id="tPql8nwHRE3eNj_HZZmI-140" value="" style="endArrow=none;html=1;rounded=0;exitX=0.5;exitY=1;exitDx=0;exitDy=0;entryX=0.5;entryY=0;entryDx=0;entryDy=0;dashed=1;" edge="1" parent="1" source="tPql8nwHRE3eNj_HZZmI-71" target="tPql8nwHRE3eNj_HZZmI-85">
          <mxGeometry width="50" height="50" relative="1" as="geometry">
            <mxPoint x="340" y="410" as="sourcePoint" />
            <mxPoint x="390" y="360" as="targetPoint" />
          </mxGeometry>
        </mxCell>
        <mxCell id="tPql8nwHRE3eNj_HZZmI-141" value="" style="endArrow=none;html=1;rounded=0;entryX=0;entryY=0.5;entryDx=0;entryDy=0;exitX=1;exitY=0.5;exitDx=0;exitDy=0;dashed=1;" edge="1" parent="1" source="tPql8nwHRE3eNj_HZZmI-76" target="tPql8nwHRE3eNj_HZZmI-104">
          <mxGeometry width="50" height="50" relative="1" as="geometry">
            <mxPoint x="340" y="410" as="sourcePoint" />
            <mxPoint x="390" y="360" as="targetPoint" />
          </mxGeometry>
        </mxCell>
        <mxCell id="tPql8nwHRE3eNj_HZZmI-142" value="" style="endArrow=none;html=1;rounded=0;exitX=1;exitY=0.5;exitDx=0;exitDy=0;entryX=0;entryY=0.5;entryDx=0;entryDy=0;dashed=1;" edge="1" parent="1" source="tPql8nwHRE3eNj_HZZmI-54" target="tPql8nwHRE3eNj_HZZmI-100">
          <mxGeometry width="50" height="50" relative="1" as="geometry">
            <mxPoint x="340" y="410" as="sourcePoint" />
            <mxPoint x="390" y="360" as="targetPoint" />
          </mxGeometry>
        </mxCell>
        <mxCell id="tPql8nwHRE3eNj_HZZmI-143" value="" style="endArrow=none;html=1;rounded=0;exitX=0.25;exitY=1;exitDx=0;exitDy=0;entryX=0;entryY=0.5;entryDx=0;entryDy=0;dashed=1;" edge="1" parent="1" source="tPql8nwHRE3eNj_HZZmI-64" target="tPql8nwHRE3eNj_HZZmI-108">
          <mxGeometry width="50" height="50" relative="1" as="geometry">
            <mxPoint x="340" y="410" as="sourcePoint" />
            <mxPoint x="390" y="360" as="targetPoint" />
          </mxGeometry>
        </mxCell>
        <mxCell id="tPql8nwHRE3eNj_HZZmI-146" value="" style="shape=curlyBracket;whiteSpace=wrap;html=1;rounded=1;flipH=1;labelPosition=right;verticalLabelPosition=middle;align=left;verticalAlign=middle;size=0.5;" vertex="1" parent="1">
          <mxGeometry x="580" y="290" width="40" height="170" as="geometry" />
        </mxCell>
        <mxCell id="tPql8nwHRE3eNj_HZZmI-149" value="" style="shape=ext;double=1;rounded=1;whiteSpace=wrap;html=1;" vertex="1" parent="1">
          <mxGeometry x="632.5" y="350" width="75" height="50" as="geometry" />
        </mxCell>
        <mxCell id="tPql8nwHRE3eNj_HZZmI-150" value="" style="endArrow=classic;html=1;rounded=0;" edge="1" parent="1">
          <mxGeometry width="50" height="50" relative="1" as="geometry">
            <mxPoint x="600" y="380" as="sourcePoint" />
            <mxPoint x="630" y="380" as="targetPoint" />
            <Array as="points">
              <mxPoint x="610" y="380" />
            </Array>
          </mxGeometry>
        </mxCell>
        <mxCell id="tPql8nwHRE3eNj_HZZmI-151" value="d x n&lt;br&gt;embedding&amp;nbsp;" style="text;html=1;strokeColor=none;fillColor=none;align=center;verticalAlign=middle;whiteSpace=wrap;rounded=0;" vertex="1" parent="1">
          <mxGeometry x="80" y="430" width="60" height="30" as="geometry" />
        </mxCell>
        <mxCell id="tPql8nwHRE3eNj_HZZmI-152" value="nakutumia" style="text;html=1;strokeColor=none;fillColor=none;align=center;verticalAlign=middle;whiteSpace=wrap;rounded=0;" vertex="1" parent="1">
          <mxGeometry x="20" y="350" width="60" height="30" as="geometry" />
        </mxCell>
        <mxCell id="tPql8nwHRE3eNj_HZZmI-153" value="pesa" style="text;html=1;strokeColor=none;fillColor=none;align=center;verticalAlign=middle;whiteSpace=wrap;rounded=0;" vertex="1" parent="1">
          <mxGeometry x="20" y="370" width="60" height="30" as="geometry" />
        </mxCell>
        <mxCell id="tPql8nwHRE3eNj_HZZmI-154" value="tigo" style="text;html=1;strokeColor=none;fillColor=none;align=center;verticalAlign=middle;whiteSpace=wrap;rounded=0;" vertex="1" parent="1">
          <mxGeometry x="20" y="400" width="60" height="30" as="geometry" />
        </mxCell>
        <mxCell id="tPql8nwHRE3eNj_HZZmI-155" value="Conv1D feature maps" style="text;html=1;strokeColor=none;fillColor=none;align=center;verticalAlign=middle;whiteSpace=wrap;rounded=0;" vertex="1" parent="1">
          <mxGeometry x="350" y="600" width="120" height="30" as="geometry" />
        </mxCell>
        <mxCell id="tPql8nwHRE3eNj_HZZmI-156" value="maxpooling" style="text;html=1;strokeColor=none;fillColor=none;align=center;verticalAlign=middle;whiteSpace=wrap;rounded=0;" vertex="1" parent="1">
          <mxGeometry x="550" y="510" width="60" height="30" as="geometry" />
        </mxCell>
        <mxCell id="tPql8nwHRE3eNj_HZZmI-157" value="LSTM Cell" style="text;html=1;strokeColor=none;fillColor=none;align=center;verticalAlign=middle;whiteSpace=wrap;rounded=0;" vertex="1" parent="1">
          <mxGeometry x="640" y="360" width="60" height="30" as="geometry" />
        </mxCell>
        <mxCell id="tPql8nwHRE3eNj_HZZmI-158" value="" style="endArrow=classic;html=1;rounded=0;entryX=-0.4;entryY=0.136;entryDx=0;entryDy=0;entryPerimeter=0;" edge="1" parent="1" target="tPql8nwHRE3eNj_HZZmI-112">
          <mxGeometry width="50" height="50" relative="1" as="geometry">
            <mxPoint x="460" y="260" as="sourcePoint" />
            <mxPoint x="510" y="210" as="targetPoint" />
          </mxGeometry>
        </mxCell>
        <mxCell id="tPql8nwHRE3eNj_HZZmI-159" value="" style="endArrow=classic;html=1;rounded=0;entryX=-0.2;entryY=0.562;entryDx=0;entryDy=0;entryPerimeter=0;" edge="1" parent="1" target="tPql8nwHRE3eNj_HZZmI-112">
          <mxGeometry width="50" height="50" relative="1" as="geometry">
            <mxPoint x="460" y="390" as="sourcePoint" />
            <mxPoint x="510" y="340" as="targetPoint" />
          </mxGeometry>
        </mxCell>
        <mxCell id="tPql8nwHRE3eNj_HZZmI-160" value="" style="endArrow=classic;html=1;rounded=0;entryX=-0.367;entryY=0.088;entryDx=0;entryDy=0;entryPerimeter=0;" edge="1" parent="1" target="tPql8nwHRE3eNj_HZZmI-129">
          <mxGeometry width="50" height="50" relative="1" as="geometry">
            <mxPoint x="460" y="530" as="sourcePoint" />
            <mxPoint x="510" y="480" as="targetPoint" />
          </mxGeometry>
        </mxCell>
      </root>
    </mxGraphModel>
  </diagram>
</mxfile>
